HIERARCHY
ROOT Hips
{
  OFFSET 30.0103 92.7176 23.524
  CHANNELS 6 Xposition Yposition Zposition Zrotation Xrotation Yrotation
  JOINT spine
  {
    OFFSET 0 7.4756 0.429885
    CHANNELS 3 Zrotation Xrotation Yrotation
    JOINT spine1
    {
      OFFSET 0 9.92301 0
      CHANNELS 3 Zrotation Xrotation Yrotation
      JOINT spine2
      {
        OFFSET 0 9.50804 0
        CHANNELS 3 Zrotation Xrotation Yrotation
        JOINT Neck
        {
          OFFSET 0 24.4111 1.16384
          CHANNELS 3 Zrotation Xrotation Yrotation
          JOINT Head
          {
            OFFSET 0 7.37523 0
            CHANNELS 3 Zrotation Xrotation Yrotation
            End Site
            {
              OFFSET 0 17.8522 -5.88741
            }
          }
        }
        JOINT RightShoulder
        {
          OFFSET -4.00356 10.2679 -0.557468
          CHANNELS 3 Zrotation Xrotation Yrotation
          JOINT RightArm
          {
            OFFSET 0 13.4673 0
            CHANNELS 3 Zrotation Xrotation Yrotation
            JOINT RightArmRoll
            {
              OFFSET 0 6.79858 0
              CHANNELS 3 Zrotation Xrotation Yrotation
              JOINT RightForeArm
              {
                OFFSET 0 19.8018 0
                CHANNELS 3 Zrotation Xrotation Yrotation
                JOINT RightForeArmRoll
                {
                  OFFSET 0 7.62906 0
                  CHANNELS 3 Zrotation Xrotation Yrotation
                  JOINT RightHand
                  {
                    OFFSET 0 15.3098 0
                    CHANNELS 3 Zrotation Xrotation Yrotation
                    End Site
                    {
                      OFFSET 0 0 0
                    }
                  }
                }
              }
            }
          }
        }
        JOINT LeftShoulder
        {
          OFFSET 4.00356 10.2679 -0.557468
          CHANNELS 3 Zrotation Xrotation Yrotation
          JOINT LeftArm
          {
            OFFSET 0 13.4673 0
            CHANNELS 3 Zrotation Xrotation Yrotation
            JOINT LeftArmRoll
            {
              OFFSET 0 6.79858 0
              CHANNELS 3 Zrotation Xrotation Yrotation
              JOINT LeftForeArm
              {
                OFFSET 0 19.8018 0
                CHANNELS 3 Zrotation Xrotation Yrotation
                JOINT LeftForeArmRoll
                {
                  OFFSET 0 7.62906 0
                  CHANNELS 3 Zrotation Xrotation Yrotation
                  JOINT LeftHand
                  {
                    OFFSET 0 15.3098 0
                    CHANNELS 3 Zrotation Xrotation Yrotation
                    End Site
                    {
                      OFFSET 0 0 0
                    }
                  }
                }
              }
            }
          }
        }
      }
    }
  }
  JOINT RightUpLeg
  {
    OFFSET -6.62609 -1.21505 -1.01927
    CHANNELS 3 Zrotation Xrotation Yrotation
    JOINT RightUpLegRoll
    {
      OFFSET 0 17.9517 0
      CHANNELS 3 Zrotation Xrotation Yrotation
      JOINT RightLeg
      {
        OFFSET 0 -22.2304 0
        CHANNELS 3 Zrotation Xrotation Yrotation
        JOINT RightLegRoll
        {
          OFFSET 0 22.3032 0
          CHANNELS 3 Zrotation Xrotation Yrotation
          JOINT RightFoot
          {
            OFFSET 0 18.5636 0
            CHANNELS 3 Zrotation Xrotation Yrotation
            JOINT RightToeBase
            {
              OFFSET 0 15.5183 0
              CHANNELS 3 Zrotation Xrotation Yrotation
              End Site
              {
                OFFSET 0.00657761 7.51538 -0.866263
              }
            }
          }
        }
      }
    }
  }
  JOINT LeftUpLeg
  {
    OFFSET 6.62609 -1.21505 -1.01927
    CHANNELS 3 Zrotation Xrotation Yrotation
    JOINT LeftUpLegRoll
    {
      OFFSET 0 17.9518 0
      CHANNELS 3 Zrotation Xrotation Yrotation
      JOINT LeftLeg
      {
        OFFSET 0 22.2303 0
        CHANNELS 3 Zrotation Xrotation Yrotation
        JOINT LeftLegRoll
        {
          OFFSET 0 22.5093 0
          CHANNELS 3 Zrotation Xrotation Yrotation
          JOINT LeftFoot
          {
            OFFSET 0 18.3575 0
            CHANNELS 3 Zrotation Xrotation Yrotation
            JOINT LeftToeBase
            {
              OFFSET 0 15.5183 0
              CHANNELS 3 Zrotation Xrotation Yrotation
              End Site
              {
                OFFSET -0.029478 7.51539 -0.866263
              }
            }
          }
        }
      }
    }
  }
}
MOTION
Frames: 12
Frame Time: 0.00208333
35.9429 93.9145 23.6009 3.29782 1.284 72.8301 -0.548098 -2.09529 0.983605 -1.06881 -0.197115 2.01804 -1.09329 1.44737 2.03641 -8.92507 -10.1583 -2.33549 9.67383 12.0679 -3.04133 44.6446 -9.32317 -5.61001 -62.2412 66.8163 172.056 -7.96731e-006 8.57309e-006 4.75003e-006 -2.37303 41.3581 -2.29558 -1.66471e-006 -5.95936e-007 -3.00304 8.03017 -4.95137 0.697638 -65.3481 -10.7279 6.64889 -99.9416 24.1053 -9.32031 -2.28716e-005 -3.55401e-006 4.69745e-006 -9.46519 0.145857 0.648253 -5.09214e-007 8.63053e-006 3.00603 -8.02891 -4.95154 -0.69769 -177.023 -3.17237 -1.22377 -180 7.01509e-015 178.77 177.64 14.2234 179.699 -4.35236e-006 -3.06255e-006 0.253508 -20.3896 70.1419 21.5094 8.45298 28.1368 -5.63663 -178.703 5.3951 1.84007 4.54188e-006 -4.6773e-006 -0.8807 -3.88256 -7.69922 0.0049513 1.02514e-006 7.58868e-007 -0.0786887 17.0525 65.987 -18.0015 -8.13653 25.2327 3.48775 
35.9163 93.9271 23.6153 3.24607 1.24795 72.842 -0.544572 -2.09091 0.978117 -1.06218 -0.188243 2.00678 -1.08653 1.45625 2.02504 -8.95182 -10.3834 -2.37129 9.74146 12.1261 -3.06577 44.4227 -9.39403 -5.66577 -62.441 66.8252 172.144 -7.96731e-006 8.57309e-006 4.75003e-006 -2.4445 40.8659 -2.26912 -1.66471e-006 -5.95936e-007 -3.00304 8.03017 -4.95137 0.697638 -65.3837 -10.735 6.65246 -99.9107 24.1822 -9.1906 -2.28716e-005 -3.55401e-006 4.69745e-006 -9.55763 0.167704 0.636572 -5.09214e-007 8.63053e-006 3.00477 -8.02891 -4.95154 -0.69769 -176.969 -3.15822 -1.25486 -180 7.01509e-015 178.771 177.63 14.1598 179.702 -4.35236e-006 -3.06255e-006 0.251744 -20.391 70.1366 21.5052 8.435 28.017 -5.546 -178.635 5.38503 1.81012 4.54188e-006 -4.6773e-006 -0.879923 -3.88224 -7.59244 0.00521626 1.02514e-006 7.58868e-007 -0.0775424 17.0543 65.989 -18.0044 -8.13653 25.2327 3.48775 
35.8952 93.9389 23.6357 3.19211 1.21159 72.8564 -0.541012 -2.0874 0.972251 -1.05543 -0.1811 1.99475 -1.07963 1.4634 2.0129 -8.97672 -10.5986 -2.40685 9.80818 12.1778 -3.08988 44.2126 -9.4585 -5.71662 -62.6216 66.8462 172.2 -7.96731e-006 8.57309e-006 4.75003e-006 -2.50164 40.4019 -2.24839 -1.66471e-006 -5.95936e-007 -3.00304 8.03017 -4.95137 0.697638 -65.4185 -10.7392 6.65445 -99.8797 24.2538 -9.06312 -2.28716e-005 -3.55401e-006 4.69745e-006 -9.64948 0.196043 0.62622 -5.09214e-007 8.63053e-006 3.00477 -8.02891 -4.95154 -0.69769 -176.912 -3.14368 -1.28747 -180 7.0151e-015 178.772 177.62 14.0936 179.705 -4.35236e-006 -3.06255e-006 0.249955 -20.3918 70.1304 21.4999 8.41798 27.9006 -5.45829 -178.566 5.38312 1.78062 4.54188e-006 -4.6773e-006 -0.879217 -3.88087 -7.49593 0.00553681 1.02514e-006 7.58868e-007 -0.0765242 17.0582 65.9942 -18.0093 -8.13653 25.2327 3.48775 
35.8668 93.9422 23.6506 3.13649 1.17531 72.8729 -0.537527 -2.08466 0.965958 -1.04875 -0.175498 1.98187 -1.0728 1.469 1.99991 -9.00044 -10.8033 -2.44152 9.87489 12.2223 -3.1131 44.0139 -9.51551 -5.76152 -62.7841 66.8805 172.228 -7.96731e-006 8.57309e-006 4.75003e-006 -2.54367 39.9707 -2.23339 -1.66471e-006 -5.95936e-007 -3.00304 8.03017 -4.95137 0.697638 -65.4525 -10.7409 6.65504 -99.8488 24.3201 -8.93767 -2.28716e-005 -3.55401e-006 4.69745e-006 -9.74091 0.231938 0.617488 -5.09214e-007 8.63053e-006 3.00477 -8.02891 -4.95154 -0.69769 -176.853 -3.12889 -1.32122 -180 7.0151e-015 178.773 177.61 14.0249 179.708 -4.35236e-006 -3.06255e-006 0.248145 -20.3912 70.123 21.4933 8.40202 27.7889 -5.37424 -178.498 5.38917 1.75171 4.54188e-006 -4.6773e-006 -0.878595 -3.87854 -7.41018 0.00587956 1.02514e-006 7.58868e-007 -0.0756353 17.0643 66.0027 -18.0165 -8.13653 25.2327 3.48775 
35.8392 93.9503 23.6566 3.07978 1.13946 72.891 -0.534224 -2.08259 0.959195 -1.04235 -0.171252 1.96806 -1.06623 1.47326 1.98599 -9.0236 -10.9971 -2.47464 9.94247 12.2591 -3.13484 43.8265 -9.56404 -5.79943 -62.9294 66.9297 172.23 -7.96731e-006 8.57309e-006 4.75003e-006 -2.56981 39.577 -2.22416 -1.66471e-006 -5.95936e-007 -3.00304 8.03017 -4.95137 0.697638 -65.4859 -10.7403 6.6544 -99.8177 24.3813 -8.81405 -2.28716e-005 -3.55401e-006 4.69745e-006 -9.83209 0.276451 0.610668 -5.09214e-007 8.63053e-006 3.00477 -8.02891 -4.95154 -0.69769 -176.794 -3.11402 -1.35575 -180 7.0151e-015 178.774 177.601 13.9542 179.71 -4.35236e-006 -3.06255e-006 0.246317 -20.3884 70.1141 21.4851 8.38723 27.6827 -5.29461 -178.43 5.40296 1.7235 4.54188e-006 -4.6773e-006 -0.878067 -3.87533 -7.33565 0.00621111 1.02514e-006 7.58868e-007 -0.0748772 17.0729 66.0151 -18.0262 -8.13653 25.2327 3.48775 
35.8102 93.9549 23.6775 3.02253 1.1044 72.9103 -0.531211 -2.08111 0.951913 -1.03643 -0.168172 1.95323 -1.06013 1.47635 1.97106 -9.04685 -11.1793 -2.50554 10.0118 12.2877 -3.15452 43.65 -9.60302 -5.82929 -63.0584 66.9952 172.212 -7.96731e-006 8.57309e-006 4.75003e-006 -2.57922 39.2253 -2.22073 -1.66471e-006 -5.95936e-007 -3.00304 8.03017 -4.95137 0.697638 -65.5185 -10.7377 6.65272 -99.7866 24.4375 -8.69205 -2.28716e-005 -3.55401e-006 4.69745e-006 -9.92317 0.330645 0.606049 -5.09214e-007 8.63053e-006 3.00477 -8.02891 -4.95154 -0.69769 -176.735 -3.0992 -1.39071 -180 7.01511e-015 178.775 177.592 13.8818 179.713 -4.35236e-006 -3.06255e-006 0.244475 -20.3827 70.1035 21.4749 8.37369 27.5833 -5.22016 -178.364 5.42431 1.69613 4.54188e-006 -4.6773e-006 -0.877644 -3.87134 -7.27284 0.0064981 1.02514e-006 7.58868e-007 -0.074251 17.0842 66.0315 -18.0386 -8.13653 25.2327 3.48775 
35.7764 93.9606 23.693 2.9653 1.07048 72.9303 -0.528596 -2.08012 0.944066 -1.0312 -0.166073 1.93731 -1.05471 1.47845 1.95505 -9.0708 -11.3496 -2.53357 10.0837 12.3074 -3.17157 43.4843 -9.63141 -5.85007 -63.1719 67.0781 172.176 -7.96731e-006 8.57309e-006 4.75003e-006 -2.57108 38.9203 -2.22316 -1.66471e-006 -5.95936e-007 -3.00304 8.03017 -4.95137 0.697638 -65.5505 -10.7333 6.65015 -99.7552 24.4889 -8.57147 -2.28716e-005 -3.55401e-006 4.69745e-006 -10.0143 0.395581 0.603924 -5.09214e-007 8.63053e-006 3.00477 -8.02891 -4.95154 -0.69769 -176.677 -3.08458 -1.42573 -180 7.01511e-015 178.776 177.583 13.808 179.715 -4.35236e-006 -3.06255e-006 0.242623 -20.3734 70.0908 21.4624 8.36149 27.4915 -5.15164 -178.299 5.453 1.66971 4.54188e-006 -4.6773e-006 -0.87734 -3.86664 -7.22222 0.00670719 1.02514e-006 7.58869e-007 -0.0737583 17.0983 66.0523 -18.0539 -8.13653 25.2327 3.48775 
35.7515 93.942 23.7103 2.90864 1.03805 72.9505 -0.526487 -2.07952 0.935609 -1.02687 -0.164767 1.92021 -1.05017 1.47977 1.93787 -9.09607 -11.5074 -2.55805 10.1592 12.3176 -3.18541 43.329 -9.64815 -5.86072 -63.2708 67.18 172.126 -7.96731e-006 8.57309e-006 4.75003e-006 -2.54448 38.6666 -2.23152 -1.66471e-006 -5.95936e-007 -3.00304 8.03017 -4.95137 0.697638 -65.5817 -10.7276 6.64688 -99.7237 24.5354 -8.45211 -2.28716e-005 -3.55401e-006 4.69745e-006 -10.1058 0.472323 0.604582 -5.09214e-007 8.63053e-006 3.00477 -8.02891 -4.95154 -0.69769 -176.62 -3.07031 -1.46044 -180 7.01511e-015 178.778 177.575 13.7332 179.718 -4.35236e-006 -3.06255e-006 0.240765 -20.3596 70.0759 21.4473 8.35069 27.4086 -5.08977 -178.236 5.48884 1.64438 4.54188e-006 -4.6773e-006 -0.877164 -3.86134 -7.18426 0.00680502 1.02514e-006 7.58869e-007 -0.0734002 17.1156 66.0778 -18.0723 -8.13653 25.2327 3.48775 
35.7302 93.9507 23.7205 2.85061 1.00594 72.9724 -0.524691 -2.07989 0.926449 -1.02297 -0.165396 1.90172 -1.04606 1.47915 1.91931 -9.12055 -11.6486 -2.57964 10.2378 12.3152 -3.19648 43.1853 -9.65179 -5.86031 -63.3436 67.3046 172.04 -7.96731e-006 8.57309e-006 4.75003e-006 -2.49528 38.4609 -2.24729 -1.66471e-006 -5.95936e-007 -3.00304 8.03017 -4.95137 0.697638 -65.6105 -10.7191 6.64216 -99.6922 24.5742 -8.33379 -2.28716e-005 -3.55401e-006 4.69745e-006 -10.1981 0.56354 0.608254 -5.09214e-007 8.63053e-006 3.00477 -8.02891 -4.95154 -0.69769 -176.562 -3.05638 -1.49621 -180 7.01512e-015 178.779 177.567 13.6551 179.72 -4.35236e-006 -3.06255e-006 0.238888 -20.3422 70.0587 21.4296 8.34099 27.3326 -5.03306 -178.173 5.53527 1.62003 4.54188e-006 -4.6773e-006 -0.877153 -3.85449 -7.16252 0.00688408 1.02514e-006 7.58868e-007 -0.0732047 17.1371 66.1096 -18.0949 -8.13653 25.2327 3.48775 
35.6967 93.9692 23.7395 2.78916 0.972921 72.9973 -0.522944 -2.08176 0.916571 -1.01897 -0.169014 1.88178 -1.04181 1.47554 1.8993 -9.14193 -11.7711 -2.59956 10.3185 12.2985 -3.2058 43.0545 -9.64246 -5.84937 -63.3799 67.4529 171.897 -7.96731e-006 8.57309e-006 4.75003e-006 -2.42155 38.2953 -2.27132 -1.66471e-006 -5.95936e-007 -3.00304 8.03017 -4.95137 0.697638 -65.6354 -10.7068 6.63525 -99.6609 24.6027 -8.21664 -2.28716e-005 -3.55401e-006 4.69745e-006 -10.2917 0.669963 0.614774 -5.09214e-007 8.63053e-006 3.00477 -8.02891 -4.95154 -0.69769 -176.5 -3.04259 -1.53442 -180 7.01512e-015 178.781 177.56 13.5715 179.722 -4.35236e-006 -3.06255e-006 0.236978 -20.3226 70.0392 21.4095 8.332 27.2607 -4.97951 -178.109 5.59509 1.59643 4.54188e-006 -4.6773e-006 -0.877321 -3.84533 -7.15906 0.00705073 1.02514e-006 7.58868e-007 -0.0731906 17.1632 66.1484 -18.1223 -8.13653 25.2327 3.48775 
35.6603 93.9627 23.7513 2.72467 0.939216 73.0251 -0.521245 -2.08497 0.906046 -1.01489 -0.175302 1.86055 -1.03747 1.46926 1.87799 -9.16051 -11.8767 -2.61803 10.4007 12.2693 -3.2136 42.9364 -9.62152 -5.82902 -63.382 67.6222 171.702 -7.96731e-006 8.57309e-006 4.75003e-006 -2.32576 38.1677 -2.30284 -1.66471e-006 -5.95936e-007 -3.00304 8.03017 -4.95137 0.697638 -65.6572 -10.6907 6.62631 -99.6296 24.6223 -8.10093 -2.28716e-005 -3.55401e-006 4.69745e-006 -10.3862 0.789743 0.623837 -5.09214e-007 8.63053e-006 3.00477 -8.02891 -4.95154 -0.69769 -176.435 -3.02885 -1.57482 -180 7.01512e-015 178.782 177.552 13.4832 179.724 -4.35236e-006 -3.06255e-006 0.235038 -20.3011 70.0179 21.3874 8.32369 27.1931 -4.92912 -178.045 5.66704 1.57354 4.54188e-006 -4.6773e-006 -0.877645 -3.83416 -7.17211 0.0072925 1.02514e-006 7.58868e-007 -0.073346 17.1936 66.1933 -18.154 -8.13653 25.2327 3.48775 
35.6298 93.9611 23.7699 2.65752 0.905052 73.0555 -0.519592 -2.08935 0.894945 -1.01075 -0.183939 1.83816 -1.03306 1.46063 1.85551 -9.17662 -11.9674 -2.63525 10.4838 12.2292 -3.22011 42.8305 -9.59033 -5.80042 -63.3517 67.8099 171.458 -7.96731e-006 8.57309e-006 4.75003e-006 -2.2103 38.076 -2.34112 -1.66471e-006 -5.95936e-007 -3.00304 8.03017 -4.95137 0.697638 -65.6766 -10.6714 6.61552 -99.5982 24.6339 -7.98691 -2.28716e-005 -3.55401e-006 4.69745e-006 -10.4811 0.921034 0.63514 -5.09214e-007 8.63053e-006 3.00477 -8.02891 -4.95154 -0.69769 -176.367 -3.01505 -1.61713 -180 7.01513e-015 178.784 177.545 13.3908 179.726 -4.35236e-006 -3.06255e-006 0.233069 -20.2778 69.9949 21.3634 8.31605 27.1297 -4.88191 -177.98 5.74991 1.5513 4.54188e-006 -4.6773e-006 -0.878102 -3.82128 -7.19989 0.00759692 1.02514e-006 7.58868e-007 -0.0736585 17.2277 66.2434 -18.1895 -8.13653 25.2327 3.48775 
